<svg width="128" height="128" viewBox="0 0 128 128" fill="none" xmlns="http://www.w3.org/2000/svg">
<path d="M93.9795 115.926L34.0215 115.926L4.04199 64L34.0215 12.0742L93.9795 12.0742L123.959 64L93.9795 115.926Z" stroke="black" stroke-width="7"/>
<mask id="path-2-outside-1_1_35" maskUnits="userSpaceOnUse" x="40" y="26" width="47" height="78" fill="black">
<rect fill="white" x="40" y="26" width="47" height="78"/>
<path d="M61.174 101.273V28.5455H65.8331V101.273H61.174ZM76.8558 50.3636C76.5149 47.4848 75.1323 45.25 72.7081 43.6591C70.2839 42.0682 67.3104 41.2727 63.7876 41.2727C61.2119 41.2727 58.9581 41.6894 57.0263 42.5227C55.1134 43.3561 53.6172 44.5019 52.5376 45.9602C51.477 47.4186 50.9467 49.0758 50.9467 50.9318C50.9467 52.4848 51.3161 53.8201 52.0547 54.9375C52.8123 56.036 53.7782 56.9545 54.9524 57.6932C56.1267 58.4129 57.3577 59.0095 58.6456 59.483C59.9335 59.9375 61.1172 60.3068 62.1967 60.5909L68.1058 62.1818C69.621 62.5795 71.3066 63.1288 73.1626 63.8295C75.0376 64.5303 76.8274 65.4867 78.532 66.6989C80.2554 67.892 81.6759 69.4261 82.7933 71.3011C83.9108 73.1761 84.4695 75.4773 84.4695 78.2045C84.4695 81.3485 83.6456 84.1894 81.9979 86.7273C80.3691 89.2652 77.9827 91.2822 74.8388 92.7784C71.7138 94.2746 67.9164 95.0227 63.4467 95.0227C59.2801 95.0227 55.6721 94.3504 52.6229 93.0057C49.5926 91.661 47.2062 89.786 45.4638 87.3807C43.7403 84.9754 42.7649 82.1818 42.5376 79H49.8104C49.9998 81.197 50.7384 83.0152 52.0263 84.4545C53.3331 85.875 54.9808 86.9356 56.9695 87.6364C58.977 88.3182 61.1361 88.6591 63.4467 88.6591C66.1361 88.6591 68.5509 88.2235 70.6911 87.3523C72.8312 86.4621 74.5263 85.2311 75.7763 83.6591C77.0263 82.0682 77.6513 80.2121 77.6513 78.0909C77.6513 76.1591 77.1115 74.5871 76.032 73.375C74.9524 72.1629 73.532 71.178 71.7706 70.4205C70.0092 69.6629 68.1058 69 66.0604 68.4318L58.9013 66.3864C54.3558 65.0795 50.7573 63.214 48.1058 60.7898C45.4543 58.3655 44.1286 55.1932 44.1286 51.2727C44.1286 48.0151 45.0092 45.1742 46.7706 42.75C48.5509 40.3068 50.9373 38.4129 53.9297 37.0682C56.9411 35.7045 60.3028 35.0227 64.0149 35.0227C67.7649 35.0227 71.0982 35.6951 74.0149 37.0398C76.9316 38.3655 79.2422 40.1837 80.9467 42.4943C82.6702 44.8049 83.5793 47.428 83.674 50.3636H76.8558Z"/>
</mask>
<path d="M61.174 101.273V28.5455H65.8331V101.273H61.174ZM76.8558 50.3636C76.5149 47.4848 75.1323 45.25 72.7081 43.6591C70.2839 42.0682 67.3104 41.2727 63.7876 41.2727C61.2119 41.2727 58.9581 41.6894 57.0263 42.5227C55.1134 43.3561 53.6172 44.5019 52.5376 45.9602C51.477 47.4186 50.9467 49.0758 50.9467 50.9318C50.9467 52.4848 51.3161 53.8201 52.0547 54.9375C52.8123 56.036 53.7782 56.9545 54.9524 57.6932C56.1267 58.4129 57.3577 59.0095 58.6456 59.483C59.9335 59.9375 61.1172 60.3068 62.1967 60.5909L68.1058 62.1818C69.621 62.5795 71.3066 63.1288 73.1626 63.8295C75.0376 64.5303 76.8274 65.4867 78.532 66.6989C80.2554 67.892 81.6759 69.4261 82.7933 71.3011C83.9108 73.1761 84.4695 75.4773 84.4695 78.2045C84.4695 81.3485 83.6456 84.1894 81.9979 86.7273C80.3691 89.2652 77.9827 91.2822 74.8388 92.7784C71.7138 94.2746 67.9164 95.0227 63.4467 95.0227C59.2801 95.0227 55.6721 94.3504 52.6229 93.0057C49.5926 91.661 47.2062 89.786 45.4638 87.3807C43.7403 84.9754 42.7649 82.1818 42.5376 79H49.8104C49.9998 81.197 50.7384 83.0152 52.0263 84.4545C53.3331 85.875 54.9808 86.9356 56.9695 87.6364C58.977 88.3182 61.1361 88.6591 63.4467 88.6591C66.1361 88.6591 68.5509 88.2235 70.6911 87.3523C72.8312 86.4621 74.5263 85.2311 75.7763 83.6591C77.0263 82.0682 77.6513 80.2121 77.6513 78.0909C77.6513 76.1591 77.1115 74.5871 76.032 73.375C74.9524 72.1629 73.532 71.178 71.7706 70.4205C70.0092 69.6629 68.1058 69 66.0604 68.4318L58.9013 66.3864C54.3558 65.0795 50.7573 63.214 48.1058 60.7898C45.4543 58.3655 44.1286 55.1932 44.1286 51.2727C44.1286 48.0151 45.0092 45.1742 46.7706 42.75C48.5509 40.3068 50.9373 38.4129 53.9297 37.0682C56.9411 35.7045 60.3028 35.0227 64.0149 35.0227C67.7649 35.0227 71.0982 35.6951 74.0149 37.0398C76.9316 38.3655 79.2422 40.1837 80.9467 42.4943C82.6702 44.8049 83.5793 47.428 83.674 50.3636H76.8558Z" fill="white"/>
<path d="M61.174 101.273H59.174V103.273H61.174V101.273ZM61.174 28.5454V26.5454H59.174V28.5454H61.174ZM65.8331 28.5454H67.8331V26.5454H65.8331V28.5454ZM65.8331 101.273V103.273H67.8331V101.273H65.8331ZM76.8558 50.3636L74.8697 50.5988L75.0787 52.3636H76.8558V50.3636ZM72.7081 43.6591L71.6108 45.3312V45.3312L72.7081 43.6591ZM57.0263 42.5227L56.2341 40.6863L56.2275 40.6892L57.0263 42.5227ZM52.5376 45.9602L50.9302 44.7703L50.9251 44.7771L50.9202 44.7839L52.5376 45.9602ZM52.0547 54.9375L50.3862 56.0404L50.3971 56.0568L50.4083 56.073L52.0547 54.9375ZM54.9524 57.6932L53.8875 59.3861L53.8974 59.3923L53.9073 59.3984L54.9524 57.6932ZM58.6456 59.483L57.9555 61.3601L57.9677 61.3646L57.98 61.3689L58.6456 59.483ZM62.1967 60.5909L62.7167 58.6596L62.7057 58.6568L62.1967 60.5909ZM68.1058 62.1818L67.5859 64.1131L67.598 64.1163L68.1058 62.1818ZM73.1626 63.8295L72.4562 65.7006L72.4625 65.703L73.1626 63.8295ZM78.532 66.6989L77.3729 68.3288L77.3832 68.3361L77.3935 68.3432L78.532 66.6989ZM82.7933 71.3011L84.5114 70.2773V70.2773L82.7933 71.3011ZM81.9979 86.7273L80.3204 85.6382L80.3147 85.647L81.9979 86.7273ZM74.8388 92.7784L73.9793 90.9725L73.9751 90.9745L74.8388 92.7784ZM52.6229 93.0057L51.8117 94.8338L51.8159 94.8356L52.6229 93.0057ZM45.4638 87.3807L43.838 88.5456L43.8441 88.554L45.4638 87.3807ZM42.5376 79V77H40.3897L40.5427 79.1425L42.5376 79ZM49.8104 79L51.803 78.8282L51.6454 77H49.8104V79ZM52.0263 84.4545L50.5358 85.7881L50.545 85.7985L50.5544 85.8087L52.0263 84.4545ZM56.9695 87.6364L56.3048 89.5227L56.3155 89.5265L56.3263 89.5301L56.9695 87.6364ZM70.6911 87.3523L71.4451 89.2047L71.4521 89.2018L71.4591 89.1989L70.6911 87.3523ZM75.7763 83.6591L77.3417 84.9039L77.3489 84.8947L75.7763 83.6591ZM76.032 73.375L77.5255 72.0448V72.0448L76.032 73.375ZM71.7706 70.4205L70.9804 72.2577H70.9804L71.7706 70.4205ZM66.0604 68.4318L65.5109 70.3549L65.518 70.3569L65.5251 70.3589L66.0604 68.4318ZM58.9013 66.3864L58.3487 68.3085L58.3518 68.3094L58.9013 66.3864ZM48.1058 60.7898L46.7563 62.2658H46.7563L48.1058 60.7898ZM46.7706 42.75L45.1542 41.5722L45.1526 41.5744L46.7706 42.75ZM53.9297 37.0682L54.7495 38.8925L54.7547 38.8901L53.9297 37.0682ZM74.0149 37.0398L73.1775 38.8561L73.1873 38.8605L74.0149 37.0398ZM80.9467 42.4943L79.3373 43.6816L79.3436 43.6901L80.9467 42.4943ZM83.674 50.3636V52.3636H85.7396L85.673 50.2992L83.674 50.3636ZM61.174 101.273H63.174V28.5454H61.174H59.174V101.273H61.174ZM61.174 28.5454V30.5454H65.8331V28.5454V26.5454H61.174V28.5454ZM65.8331 28.5454H63.8331V101.273H65.8331H67.8331V28.5454H65.8331ZM65.8331 101.273V99.2727H61.174V101.273V103.273H65.8331V101.273ZM76.8558 50.3636L78.8419 50.1284C78.4315 46.6627 76.7235 43.902 73.8054 41.987L72.7081 43.6591L71.6108 45.3312C73.5412 46.598 74.5983 48.307 74.8697 50.5988L76.8558 50.3636ZM72.7081 43.6591L73.8054 41.987C70.991 40.14 67.6157 39.2727 63.7876 39.2727V41.2727V43.2727C67.005 43.2727 69.5767 43.9963 71.6108 45.3312L72.7081 43.6591ZM63.7876 41.2727V39.2727C60.999 39.2727 58.4655 39.7237 56.2341 40.6863L57.0263 42.5227L57.8185 44.3591C59.4507 43.655 61.4248 43.2727 63.7876 43.2727V41.2727ZM57.0263 42.5227L56.2275 40.6892C54.0422 41.6412 52.2478 42.9903 50.9302 44.7703L52.5376 45.9602L54.1451 47.1502C54.9866 46.0135 56.1846 45.0709 57.8251 44.3563L57.0263 42.5227ZM52.5376 45.9602L50.9202 44.7839C49.6033 46.5946 48.9467 48.6663 48.9467 50.9318H50.9467H52.9467C52.9467 49.4852 53.3508 48.2425 54.1551 47.1366L52.5376 45.9602ZM50.9467 50.9318H48.9467C48.9467 52.813 49.3985 54.5461 50.3862 56.0404L52.0547 54.9375L53.7231 53.8346C53.2336 53.094 52.9467 52.1567 52.9467 50.9318H50.9467ZM52.0547 54.9375L50.4083 56.073C51.326 57.4036 52.4929 58.5089 53.8875 59.3861L54.9524 57.6932L56.0173 56.0003C55.0634 55.4002 54.2986 54.6683 53.7011 53.802L52.0547 54.9375ZM54.9524 57.6932L53.9073 59.3984C55.1935 60.1867 56.5434 60.841 57.9555 61.3601L58.6456 59.483L59.3357 57.6058C58.172 57.178 57.0598 56.6391 55.9975 55.988L54.9524 57.6932ZM58.6456 59.483L57.98 61.3689C59.3085 61.8378 60.5452 62.2244 61.6877 62.5251L62.1967 60.5909L62.7057 58.6568C61.6891 58.3892 60.5585 58.0372 59.3112 57.597L58.6456 59.483ZM62.1967 60.5909L61.6768 62.5221L67.5859 64.113L68.1058 62.1818L68.6258 60.2506L62.7167 58.6597L62.1967 60.5909ZM68.1058 62.1818L67.598 64.1163C69.031 64.4924 70.649 65.0183 72.4562 65.7006L73.1626 63.8295L73.8691 61.9585C71.9642 61.2393 70.211 60.6667 68.6136 60.2474L68.1058 62.1818ZM73.1626 63.8295L72.4625 65.703C74.1674 66.3402 75.8037 67.2129 77.3729 68.3288L78.532 66.6989L79.691 65.069C77.8511 63.7606 75.9079 62.7204 73.8628 61.9561L73.1626 63.8295ZM78.532 66.6989L77.3935 68.3432C78.8719 69.3667 80.0982 70.6856 81.0753 72.325L82.7933 71.3011L84.5114 70.2773C83.2536 68.1667 81.639 66.4174 79.6704 65.0545L78.532 66.6989ZM82.7933 71.3011L81.0753 72.325C81.9673 73.8219 82.4695 75.7486 82.4695 78.2045H84.4695H86.4695C86.4695 75.2059 85.8542 72.5304 84.5114 70.2773L82.7933 71.3011ZM84.4695 78.2045H82.4695C82.4695 80.9778 81.7491 83.4376 80.3204 85.6382L81.9979 86.7273L83.6753 87.8164C85.5421 84.9412 86.4695 81.7191 86.4695 78.2045H84.4695ZM81.9979 86.7273L80.3147 85.647C78.917 87.8248 76.8395 89.6113 73.9793 90.9725L74.8388 92.7784L75.6982 94.5843C79.1259 92.9531 81.8212 90.7055 83.681 87.8075L81.9979 86.7273ZM74.8388 92.7784L73.9751 90.9745C71.1861 92.3098 67.7011 93.0227 63.4467 93.0227V95.0227V97.0227C68.1318 97.0227 72.2414 96.2394 75.7025 94.5823L74.8388 92.7784ZM63.4467 95.0227V93.0227C59.4906 93.0227 56.1697 92.384 53.4299 91.1757L52.6229 93.0057L51.8159 94.8356C55.1745 96.3168 59.0696 97.0227 63.4467 97.0227V95.0227ZM52.6229 93.0057L53.4341 91.1776C50.688 89.959 48.5956 88.2947 47.0835 86.2074L45.4638 87.3807L43.8441 88.554C45.8168 91.2772 48.4972 93.363 51.8117 94.8338L52.6229 93.0057ZM45.4638 87.3807L47.0895 86.2158C45.5979 84.1341 44.7357 81.7008 44.5326 78.8575L42.5376 79L40.5427 79.1425C40.7942 82.6628 41.8827 85.8167 43.838 88.5456L45.4638 87.3807ZM42.5376 79V81H49.8104V79V77H42.5376V79ZM49.8104 79L47.8178 79.1718C48.0388 81.7363 48.9192 83.9813 50.5358 85.7881L52.0263 84.4545L53.5168 83.121C52.5576 82.049 51.9607 80.6576 51.803 78.8282L49.8104 79ZM52.0263 84.4545L50.5544 85.8087C52.1027 87.4916 54.0367 88.7235 56.3048 89.5227L56.9695 87.6364L57.6342 85.7501C55.9249 85.1477 54.5635 84.2584 53.4981 83.1004L52.0263 84.4545ZM56.9695 87.6364L56.3263 89.5301C58.5588 90.2883 60.937 90.6591 63.4467 90.6591V88.6591V86.6591C61.3353 86.6591 59.3953 86.348 57.6126 85.7426L56.9695 87.6364ZM63.4467 88.6591V90.6591C66.3529 90.6591 69.0296 90.188 71.4451 89.2047L70.6911 87.3523L69.937 85.4999C68.0722 86.259 65.9194 86.6591 63.4467 86.6591V88.6591ZM70.6911 87.3523L71.4591 89.1989C73.8631 88.199 75.8506 86.779 77.3417 84.9039L75.7763 83.6591L74.2109 82.4143C73.202 83.6831 71.7993 84.7252 69.923 85.5056L70.6911 87.3523ZM75.7763 83.6591L77.3489 84.8947C78.8899 82.9335 79.6513 80.6369 79.6513 78.0909H77.6513H75.6513C75.6513 79.7873 75.1627 81.2028 74.2036 82.4234L75.7763 83.6591ZM77.6513 78.0909H79.6513C79.6513 75.767 78.9912 73.6906 77.5255 72.0448L76.032 73.375L74.5384 74.7052C75.2318 75.4837 75.6513 76.5512 75.6513 78.0909H77.6513ZM76.032 73.375L77.5255 72.0448C76.2193 70.5782 74.5427 69.4356 72.5608 68.5832L71.7706 70.4205L70.9804 72.2577C72.5213 72.9205 73.6855 73.7475 74.5384 74.7052L76.032 73.375ZM71.7706 70.4205L72.5608 68.5832C70.7084 67.7864 68.7189 67.0946 66.5957 66.5048L66.0604 68.4318L65.5251 70.3589C67.4927 70.9054 69.3101 71.5393 70.9804 72.2577L71.7706 70.4205ZM66.0604 68.4318L66.6098 66.5088L59.4507 64.4633L58.9013 66.3864L58.3518 68.3094L65.5109 70.3549L66.0604 68.4318ZM58.9013 66.3864L59.4539 64.4642C55.1149 63.2168 51.8189 61.4747 49.4554 59.3137L48.1058 60.7898L46.7563 62.2658C49.6958 64.9534 53.5968 66.9423 58.3487 68.3085L58.9013 66.3864ZM48.1058 60.7898L49.4554 59.3137C47.2587 57.3053 46.1286 54.6889 46.1286 51.2727H44.1286H42.1286C42.1286 55.6975 43.6499 59.4257 46.7563 62.2658L48.1058 60.7898ZM44.1286 51.2727H46.1286C46.1286 48.3987 46.8974 45.978 48.3886 43.9256L46.7706 42.75L45.1526 41.5744C43.1211 44.3705 42.1286 47.6316 42.1286 51.2727H44.1286ZM46.7706 42.75L48.387 43.9278C49.9452 41.7894 52.0464 40.1071 54.7495 38.8925L53.9297 37.0682L53.1099 35.2439C49.8281 36.7186 47.1566 38.8242 45.1542 41.5722L46.7706 42.75ZM53.9297 37.0682L54.7547 38.8901C57.4767 37.6575 60.5522 37.0227 64.0149 37.0227V35.0227V33.0227C60.0533 33.0227 56.4054 33.7516 53.1047 35.2463L53.9297 37.0682ZM64.0149 35.0227V37.0227C67.5239 37.0227 70.5639 37.651 73.1775 38.856L74.0149 37.0398L74.8523 35.2235C71.6326 33.7391 68.0059 33.0227 64.0149 33.0227V35.0227ZM74.0149 37.0398L73.1873 38.8605C75.8303 40.0619 77.8577 41.676 79.3373 43.6816L80.9467 42.4943L82.5562 41.307C80.6266 38.6914 78.0329 36.6692 74.8425 35.219L74.0149 37.0398ZM80.9467 42.4943L79.3436 43.6901C80.8177 45.6664 81.5933 47.8929 81.675 50.4281L83.674 50.3636L85.673 50.2992C85.5654 46.9631 84.5228 43.9435 82.5499 41.2985L80.9467 42.4943ZM83.674 50.3636V48.3636H76.8558V50.3636V52.3636H83.674V50.3636Z" fill="black" mask="url(#path-2-outside-1_1_35)"/>
</svg>
